<?xml version="1.0" encoding="UTF-8"?>
<svg id="Camada_2" data-name="Camada 2" xmlns="http://www.w3.org/2000/svg" viewBox="0 0 22.06 22.06">
  <defs>
    <style>
      .cls-1, .cls-2 {
        fill: #000;
        stroke-width: 0px;
      }

      .cls-2 {
        fill-rule: evenodd;
      }
    </style>
  </defs>
  <g id="Camada_1-2" data-name="Camada 1">
    <g>
      <path class="cls-2" d="m11.03,17.05c3.32,0,6.02-2.69,6.02-6.02s-2.69-6.02-6.02-6.02-6.02,2.69-6.02,6.02,2.69,6.02,6.02,6.02Zm0-2.01c2.22,0,4.01-1.8,4.01-4.01s-1.8-4.01-4.01-4.01-4.01,1.8-4.01,4.01,1.8,4.01,4.01,4.01Z"/>
      <path class="cls-1" d="m17.05,4.01c-.55,0-1,.45-1,1s.45,1,1,1,1-.45,1-1-.45-1-1-1Z"/>
      <path class="cls-2" d="m.66,3.29c-.66,1.29-.66,2.97-.66,6.34v2.81c0,3.37,0,5.05.66,6.34.58,1.13,1.5,2.05,2.63,2.63,1.29.66,2.97.66,6.34.66h2.81c3.37,0,5.05,0,6.34-.66,1.13-.58,2.05-1.5,2.63-2.63.66-1.29.66-2.97.66-6.34v-2.81c0-3.37,0-5.05-.66-6.34-.58-1.13-1.5-2.05-2.63-2.63-1.29-.66-2.97-.66-6.34-.66h-2.81c-3.37,0-5.05,0-6.34.66-1.13.58-2.05,1.5-2.63,2.63Zm11.78-1.28h-2.81c-1.72,0-2.89,0-3.79.08-.88.07-1.33.2-1.64.36-.75.38-1.37,1-1.75,1.75-.16.31-.29.76-.36,1.64-.07.9-.08,2.07-.08,3.79v2.81c0,1.72,0,2.89.08,3.79.07.88.2,1.33.36,1.64.38.75,1,1.37,1.75,1.75.31.16.76.29,1.64.36.9.07,2.07.08,3.79.08h2.81c1.72,0,2.89,0,3.79-.08.88-.07,1.33-.2,1.64-.36.75-.38,1.37-1,1.75-1.75.16-.31.29-.76.36-1.64.07-.9.08-2.07.08-3.79v-2.81c0-1.72,0-2.89-.08-3.79-.07-.88-.2-1.33-.36-1.64-.38-.75-1-1.37-1.75-1.75-.31-.16-.76-.29-1.64-.36-.9-.07-2.07-.08-3.79-.08Z"/>
    </g>
  </g>
</svg>